<svg width="202" height="200" viewBox="0 0 202 200" fill="none" xmlns="http://www.w3.org/2000/svg">
<g clip-path="url(#clip0_4738_64597)">
<path d="M191.798 81.6539C182.923 81.6539 175.2 76.7452 171.188 69.4934C167.241 72.4779 162.326 74.2516 156.998 74.2516C145.708 74.2516 136.277 66.2995 133.993 55.6967C131.879 56.325 129.634 56.6653 127.317 56.6653C114.319 56.6653 103.775 46.128 103.775 33.1232C103.775 31.5132 103.939 29.9489 104.246 28.4305C98.5194 24.137 94.8084 17.291 94.8084 9.58109C94.8084 6.17119 95.5415 2.93144 96.8439 0.00585938C43.5223 2.17878 0.954102 46.0887 0.954102 99.9535C0.954102 153.818 45.7476 199.999 101 199.999C156.252 199.999 201.046 155.206 201.046 99.9535C201.046 93.2908 200.385 86.7786 199.141 80.4758C196.831 81.235 194.363 81.6539 191.791 81.6539H191.798Z" fill="url(#paint0_linear_4738_64597)"/>
<path opacity="0.5" d="M127.049 170.796C71.7964 170.796 27.0029 126.002 27.0029 70.7498C27.0029 52.2472 32.0294 34.9228 40.7866 20.0527C16.5899 38.3196 0.954102 67.3071 0.954102 99.9533C0.954102 155.206 45.7476 199.999 101 199.999C137.75 199.999 169.872 180.181 187.262 150.644C170.507 163.289 149.655 170.796 127.049 170.796Z" fill="#C66416"/>
<path d="M48.2674 143.516C52.1207 143.516 55.2443 140.393 55.2443 136.539C55.2443 132.686 52.1207 129.562 48.2674 129.562C44.4142 129.562 41.2905 132.686 41.2905 136.539C41.2905 140.393 44.4142 143.516 48.2674 143.516Z" fill="#895114"/>
<path d="M78.6224 132.01C82.4756 132.01 85.5993 128.887 85.5993 125.034C85.5993 121.18 82.4756 118.057 78.6224 118.057C74.7692 118.057 71.6455 121.18 71.6455 125.034C71.6455 128.887 74.7692 132.01 78.6224 132.01Z" fill="#895114"/>
<path d="M116.426 163.055C119.217 163.055 121.479 160.792 121.479 158.002C121.479 155.211 119.217 152.949 116.426 152.949C113.636 152.949 111.374 155.211 111.374 158.002C111.374 160.792 113.636 163.055 116.426 163.055Z" fill="#895114"/>
<path d="M16.6552 105.006C19.4457 105.006 21.7079 102.744 21.7079 99.9531C21.7079 97.1626 19.4457 94.9004 16.6552 94.9004C13.8647 94.9004 11.6025 97.1626 11.6025 99.9531C11.6025 102.744 13.8647 105.006 16.6552 105.006Z" fill="#895114"/>
<path d="M59.9563 103.056C66.4121 103.056 71.6456 97.8228 71.6456 91.367C71.6456 84.9112 66.4121 79.6777 59.9563 79.6777C53.5005 79.6777 48.2671 84.9112 48.2671 91.367C48.2671 97.8228 53.5005 103.056 59.9563 103.056Z" fill="#895114"/>
<path d="M158.346 152.949C164.802 152.949 170.036 147.715 170.036 141.26C170.036 134.804 164.802 129.57 158.346 129.57C151.891 129.57 146.657 134.804 146.657 141.26C146.657 147.715 151.891 152.949 158.346 152.949Z" fill="#895114"/>
</g>
<defs>
<linearGradient id="paint0_linear_4738_64597" x1="0.954102" y1="99.9993" x2="201.046" y2="99.9993" gradientUnits="userSpaceOnUse">
<stop stop-color="#F28D00"/>
<stop offset="0.18" stop-color="#F39718"/>
<stop offset="0.55" stop-color="#F6A946"/>
<stop offset="0.83" stop-color="#F8B563"/>
<stop offset="1" stop-color="#F9BA6E"/>
</linearGradient>
<clipPath id="clip0_4738_64597">
<rect width="200.092" height="200" fill="white" transform="translate(0.954102)"/>
</clipPath>
</defs>
</svg>
